# xmcd CD database file generated by Grip 3.1.1
# 
# Track frame offsets:
#       150
#       16985
#       37032
#       55145
#       70832
#       85790
#       100212
#       118610
#       135677
#       151352
#       170912
#       187357
#       202862
#       220062
#       232772
#       249067
#       267012
#       286465
#       303805
#       325690
#       341730
# 
# Disc length: 4749 seconds
# 
# Revision: 4
# Processed by: cddbd v1.4PL0 Copyright (c) Steve Scherf et al.
# Submitted via: Grip 3.1.1
# 
DISCID=24128b15
DTITLE=Compilation - The Album Vol 1 CD 1
DYEAR=2001
DGENRE=Rock
TTITLE0=Gorillaz - Clint Eastwood
TTITLE1=Stereophonics - Mr Writer
TTITLE2=Wheatus - Teenage Dirtbag
TTITLE3=Ash - Burn Baby Burn
TTITLE4=Muse - Plug in Baby
TTITLE5=Feeder - Buck Rogers
TTITLE6=Robbie Williams - Let Love be Your Energy
TTITLE7=Toploader - Dancing in the Moonlight
TTITLE8=Creed - With Arms Wide Open
TTITLE9=Manic Street Preachers - You Stole the Sun From my Heart
TTITLE10=JJ72 - Oxygen
TTITLE11=Soulwax - Too Many DJs
TTITLE12=My Vitriol - Always: Your Way
TTITLE13=Blink 182 - All the Small Things
TTITLE14=Sunna - I'm Not Trading
TTITLE15=Placebo - Taste in Men
TTITLE16=Mansun - I Can Only Disappoint U
TTITLE17=Semisonic - Closing Time
TTITLE18=Radiohead - Optimistic
TTITLE19=Fatboy Slim - Star 69
TTITLE20=Roni Size - Reprazent - Dirty Beats
EXTD=\n YEAR: 2001 ID3G:  17
EXTT0=
EXTT1=
EXTT2=
EXTT3=
EXTT4=
EXTT5=
EXTT6=
EXTT7=
EXTT8=
EXTT9=
EXTT10=
EXTT11=
EXTT12=
EXTT13=
EXTT14=
EXTT15=
EXTT16=
EXTT17=
EXTT18=
EXTT19=
EXTT20=
PLAYORDER=
